<?xml version="1.0" encoding="iso-8859-1"?>
<!-- Generator: Adobe Illustrator 19.0.0, SVG Export Plug-In . SVG Version: 6.00 Build 0)  -->
<svg version="1.1" id="Layer_1" xmlns="http://www.w3.org/2000/svg" xmlns:xlink="http://www.w3.org/1999/xlink" x="0px" y="0px"
	 viewBox="0 0 512 512" style="enable-background:new 0 0 512 512;" xml:space="preserve">
<circle style="fill:#FF2746;" cx="256" cy="256" r="256"/>
<path style="fill:#940030;" d="M174.732,406.909l104.62,104.019c122.921-11.117,220.756-109.113,231.624-232.107L335.875,103.722
	L174.732,406.909z"/>
<path style="fill:#2D2D2D;" d="M186.971,412.444h138.056c9.006,0,16.305-7.301,16.305-16.305V115.862
	c0-9.006-7.301-16.306-16.305-16.306H186.971c-9.006,0-16.306,7.301-16.306,16.306V396.14
	C170.667,405.144,177.967,412.444,186.971,412.444z"/>
<path style="fill:#020202;" d="M325.027,99.556H256v312.889h69.027c9.006,0,16.305-7.301,16.305-16.305V115.86
	C341.333,106.856,334.033,99.556,325.027,99.556z"/>
<rect x="180.148" y="123.69" style="fill:#FFC61B;" width="151.704" height="236.175"/>
<rect x="256" y="123.69" style="fill:#D48B07;" width="75.852" height="236.175"/>
<g>
	<path style="fill:#383632;" d="M222.958,274.675c-1.984,0-3.972-0.757-5.485-2.272L191.04,245.97c-3.031-3.029-3.031-7.94,0-10.969
		l26.433-26.433c3.027-3.031,7.942-3.031,10.969,0c3.031,3.029,3.031,7.94,0,10.969l-20.945,20.947l20.945,20.947
		c3.031,3.029,3.031,7.94,0,10.969C226.93,273.918,224.942,274.675,222.958,274.675z"/>
	<path style="fill:#383632;" d="M289.042,274.675c-1.984,0-3.972-0.757-5.485-2.272c-3.031-3.029-3.031-7.94,0-10.969l20.945-20.947
		l-20.945-20.947c-3.031-3.029-3.031-7.94,0-10.969c3.027-3.031,7.942-3.031,10.969,0l26.433,26.433
		c3.031,3.029,3.031,7.94,0,10.969l-26.433,26.433C293.014,273.918,291.026,274.675,289.042,274.675z"/>
	<path style="fill:#383632;" d="M242.776,274.677c-1.165,0-2.348-0.264-3.463-0.822c-3.832-1.915-5.385-6.575-3.468-10.407
		l26.434-52.865c1.914-3.829,6.572-5.387,10.407-3.468c3.832,1.915,5.385,6.575,3.469,10.407l-26.434,52.865
		C248.361,273.105,245.622,274.677,242.776,274.677z"/>
</g>
<g>
</g>
<g>
</g>
<g>
</g>
<g>
</g>
<g>
</g>
<g>
</g>
<g>
</g>
<g>
</g>
<g>
</g>
<g>
</g>
<g>
</g>
<g>
</g>
<g>
</g>
<g>
</g>
<g>
</g>
</svg>
